<svg width="26" height="26" viewBox="0 0 26 26" fill="none" xmlns="http://www.w3.org/2000/svg">
<path d="M19.0324 19.0325V22.2045H6.34415V19.0325H4.75812V22.2045C4.75812 22.6252 4.92522 23.0286 5.22266 23.326C5.5201 23.6235 5.92351 23.7906 6.34415 23.7906H19.0324C19.4531 23.7906 19.8565 23.6235 20.1539 23.326C20.4514 23.0286 20.6185 22.6252 20.6185 22.2045V19.0325H19.0324Z" fill="white"/>
<path d="M16.6534 16.6534L15.5321 15.5321L13.4813 17.5828V11.1023H11.8953V17.5828L9.84453 15.5321L8.72321 16.6534L12.6883 20.6185L16.6534 16.6534Z" fill="white"/>
<path d="M22.2045 3.17209V1.58606H17.4464V9.51623H19.0324V6.34416H21.4115V4.75813H19.0324V3.17209H22.2045Z" fill="white"/>
<path d="M13.4813 9.51623H10.3092V1.58606H13.4813C14.112 1.58675 14.7167 1.83762 15.1628 2.28363C15.6088 2.72964 15.8596 3.33436 15.8603 3.96511V7.13718C15.8596 7.76793 15.6088 8.37265 15.1628 8.81866C14.7167 9.26467 14.112 9.51554 13.4813 9.51623ZM11.8952 7.9302H13.4813C13.6915 7.92997 13.8931 7.84634 14.0418 7.69767C14.1904 7.549 14.2741 7.34743 14.2743 7.13718V3.96511C14.2741 3.75486 14.1904 3.55329 14.0418 3.40462C13.8931 3.25595 13.6915 3.17233 13.4813 3.17209H11.8952V7.9302Z" fill="white"/>
<path d="M7.13715 1.58606H3.17206V9.51623H4.75809V7.13718H7.13715C7.55761 7.13661 7.9607 6.96933 8.25802 6.67202C8.55533 6.3747 8.72261 5.97162 8.72318 5.55115V3.17209C8.7227 2.7516 8.55544 2.34847 8.25811 2.05113C7.96077 1.7538 7.55764 1.58654 7.13715 1.58606ZM4.75809 5.55115V3.17209H7.13715L7.13794 5.55115H4.75809Z" fill="white"/>
</svg>
