<svg width="198" height="198" viewBox="0 0 198 198" fill="none" xmlns="http://www.w3.org/2000/svg">
<path d="M43.2014 172.805C41.5646 172.805 39.9948 172.155 38.8374 170.998C37.68 169.84 37.0298 168.271 37.0298 166.634V30.8582C37.0297 29.7857 37.3091 28.7316 37.8405 27.8C38.3719 26.8684 39.1369 26.0913 40.06 25.5454C40.9832 24.9995 42.0327 24.7036 43.1051 24.6868C44.1775 24.6701 45.2357 24.9331 46.1755 25.45L169.608 93.3378C170.576 93.8703 171.384 94.6531 171.946 95.6043C172.509 96.5556 172.806 97.6405 172.806 98.7456C172.806 99.8508 172.509 100.936 171.946 101.887C171.384 102.838 170.576 103.621 169.608 104.154L46.1755 172.041C45.2643 172.542 44.2413 172.805 43.2014 172.805ZM49.373 41.2938V156.196L153.826 98.7459L49.373 41.2938Z" fill="white"/>
</svg>
